<svg width="72" height="72" viewBox="0 0 72 72" fill="none" xmlns="http://www.w3.org/2000/svg">
<path d="M24.0004 20.8799C24.4299 20.8799 24.8421 21.0506 25.1459 21.3544C25.4497 21.6581 25.6204 22.0704 25.6204 22.4999C25.6204 22.9295 25.4496 23.3417 25.1459 23.6454C24.8421 23.9492 24.4299 24.1199 24.0004 24.1199C23.5708 24.1199 23.1586 23.9492 22.8548 23.6454C22.5511 23.3417 22.3803 22.9295 22.3803 22.4999C22.3827 22.0708 22.5543 21.6602 22.8572 21.3569C23.1606 21.0539 23.5712 20.8824 24.0003 20.8799L24.0004 20.8799ZM20.4004 27.558C20.7447 26.5604 21.4904 25.7523 22.4571 25.3293C23.4234 24.9058 24.5231 24.9058 25.4897 25.3293C26.4564 25.7524 27.2018 26.5604 27.5465 27.558C27.5951 27.6906 27.5597 27.8396 27.4565 27.9361C26.5207 28.8369 25.2724 29.3399 23.9734 29.3399C22.6744 29.3399 21.426 28.8368 20.4904 27.9361C20.3871 27.8396 20.3513 27.6906 20.4004 27.558Z" fill="white"/>
<path d="M24.0004 35.28C24.4299 35.28 24.8421 35.4508 25.1459 35.7545C25.4497 36.0583 25.6204 36.4705 25.6204 36.9001C25.6204 37.3296 25.4496 37.7418 25.1459 38.0456C24.8421 38.3494 24.4299 38.5201 24.0004 38.5201C23.5708 38.5201 23.1586 38.3493 22.8548 38.0456C22.5511 37.7418 22.3803 37.3296 22.3803 36.9001C22.3827 36.471 22.5543 36.0603 22.8572 35.757C23.1606 35.4541 23.5712 35.2825 24.0003 35.2801L24.0004 35.28ZM20.4004 41.9581C20.7447 40.9605 21.4904 40.1525 22.4571 39.7294C23.4234 39.3059 24.5231 39.3059 25.4897 39.7294C26.4564 40.1525 27.2018 40.9605 27.5465 41.9581C27.5951 42.0907 27.5597 42.2398 27.4565 42.3362C26.5207 43.237 25.2724 43.74 23.9734 43.74C22.6744 43.74 21.426 43.237 20.4904 42.3362C20.3871 42.2398 20.3513 42.0907 20.4004 41.9581Z" fill="white"/>
<path d="M24.0004 49.6798C24.4299 49.6798 24.8421 49.8506 25.1459 50.1543C25.4497 50.4581 25.6204 50.8703 25.6204 51.2998C25.6204 51.7294 25.4496 52.1416 25.1459 52.4454C24.8421 52.7491 24.4299 52.9199 24.0004 52.9199C23.5708 52.9199 23.1586 52.7491 22.8548 52.4454C22.5511 52.1416 22.3803 51.7294 22.3803 51.2998C22.3827 50.8707 22.5543 50.4601 22.8572 50.1568C23.1606 49.8538 23.5712 49.6823 24.0003 49.6799L24.0004 49.6798ZM20.4004 56.3579C20.7447 55.3603 21.4904 54.5523 22.4571 54.1292C23.4234 53.7057 24.5231 53.7057 25.4897 54.1292C26.4564 54.5523 27.2018 55.3603 27.5465 56.3579C27.5951 56.4905 27.5597 56.6396 27.4565 56.736C26.5207 57.6368 25.2724 58.1398 23.9734 58.1398C22.6744 58.1398 21.426 57.6368 20.4904 56.736C20.3871 56.6396 20.3513 56.4905 20.4004 56.3579Z" fill="white"/>
<path d="M52.7999 9H16.7999C16.3226 9 15.8645 9.18965 15.527 9.52714C15.1895 9.86464 14.9999 10.3227 14.9999 10.8V61.2C14.9999 61.6773 15.1895 62.1354 15.527 62.4729C15.8645 62.8104 16.3226 63 16.7999 63H52.7999C53.2772 63 53.7352 62.8104 54.0727 62.4729C54.4102 62.1354 54.5999 61.6773 54.5999 61.2V10.8C54.5999 10.3227 54.4102 9.86464 54.0727 9.52714C53.7352 9.18965 53.2772 9 52.7999 9ZM28.0319 57.6C27.0547 58.6969 25.6725 59.3482 24.2049 59.404C22.7368 59.4599 21.3092 58.915 20.2517 57.8953C19.1942 56.8756 18.5979 55.4689 18.5999 54C18.5999 52.0706 19.6293 50.2879 21.2999 49.3236C22.9705 48.3589 25.0293 48.3589 26.6999 49.3236C28.3705 50.2879 29.3999 52.0706 29.3999 54C29.4079 55.3283 28.9201 56.6121 28.0318 57.6H28.0319ZM28.0319 43.2C27.0547 44.2969 25.6725 44.9482 24.2049 45.004C22.7368 45.0599 21.3092 44.515 20.2517 43.4953C19.1942 42.4756 18.5979 41.0689 18.5999 39.6C18.5999 37.6706 19.6293 35.8879 21.2999 34.9236C22.9705 33.9589 25.0293 33.9589 26.6999 34.9236C28.3705 35.8879 29.3999 37.6706 29.3999 39.6C29.4079 40.9283 28.9201 42.2121 28.0318 43.2H28.0319ZM28.0319 28.8C27.0547 29.8969 25.6725 30.5482 24.2049 30.604C22.7368 30.6599 21.3092 30.115 20.2517 29.0953C19.1942 28.0756 18.5979 26.6689 18.5999 25.2C18.5999 23.2706 19.6293 21.4879 21.2999 20.5236C22.9705 19.5589 25.0293 19.5589 26.6999 20.5236C28.3705 21.4879 29.3999 23.2706 29.3999 25.2C29.4079 26.5283 28.9201 27.8121 28.0318 28.8H28.0319ZM44.6999 54.9H32.0999C31.6029 54.9 31.1999 54.497 31.1999 54C31.1999 53.503 31.6029 53.1 32.0999 53.1H44.6999C45.1969 53.1 45.5999 53.503 45.5999 54C45.5999 54.497 45.1969 54.9 44.6999 54.9ZM44.6999 40.5H32.0999C31.6029 40.5 31.1999 40.097 31.1999 39.6C31.1999 39.103 31.6029 38.7 32.0999 38.7H44.6999C45.1969 38.7 45.5999 39.103 45.5999 39.6C45.5999 40.097 45.1969 40.5 44.6999 40.5ZM44.6999 26.1H32.0999C31.6029 26.1 31.1999 25.697 31.1999 25.2C31.1999 24.703 31.6029 24.3 32.0999 24.3H44.6999C45.1969 24.3 45.5999 24.703 45.5999 25.2C45.5999 25.697 45.1969 26.1 44.6999 26.1ZM44.6999 14.4H24.8999C24.4029 14.4 23.9999 13.997 23.9999 13.5C23.9999 13.003 24.4029 12.6 24.8999 12.6H44.6999C45.1969 12.6 45.5999 13.003 45.5999 13.5C45.5999 13.997 45.1969 14.4 44.6999 14.4ZM49.1999 56.7C48.4839 56.7 47.7968 56.4155 47.2906 55.9093C46.7845 55.403 46.4999 54.7159 46.4999 54.0001C46.4999 53.2842 46.7844 52.597 47.2906 52.0908C47.7969 51.5847 48.484 51.3001 49.1999 51.3001C49.9158 51.3001 50.603 51.5846 51.1091 52.0908C51.6153 52.5971 51.8998 53.2842 51.8998 54.0001C51.8998 54.7159 51.6154 55.4031 51.1091 55.9093C50.6029 56.4154 49.9158 56.7 49.1999 56.7ZM46.761 38.4387L48.0391 37.1606L49.1999 38.3311L50.361 37.1611L51.6391 38.4392L50.4687 39.5999L51.6387 40.7611L50.3606 42.0392L49.1999 40.8687L48.0387 42.0387L46.7606 40.7606L47.931 39.5999L46.761 38.4387ZM49.1999 27.9C48.4839 27.9 47.7968 27.6155 47.2906 27.1093C46.7845 26.603 46.4999 25.9159 46.4999 25.2001C46.4999 24.4842 46.7844 23.797 47.2906 23.2908C47.7969 22.7847 48.484 22.5001 49.1999 22.5001C49.9158 22.5001 50.603 22.7846 51.1091 23.2908C51.6153 23.7971 51.8998 24.4842 51.8998 25.2001C51.8998 25.9159 51.6154 26.6031 51.1091 27.1093C50.6029 27.6154 49.9158 27.9 49.1999 27.9Z" fill="white"/>
<path d="M50.9991 25.2001C50.9991 26.1942 50.1931 27.0001 49.1991 27.0001C48.2051 27.0001 47.3991 26.1942 47.3991 25.2001C47.3991 24.2061 48.2051 23.4001 49.1991 23.4001C50.1931 23.4001 50.9991 24.2061 50.9991 25.2001Z" fill="white"/>
<path d="M50.9991 54.0001C50.9991 54.9941 50.1931 55.8001 49.1991 55.8001C48.2051 55.8001 47.3991 54.9941 47.3991 54.0001C47.3991 53.0061 48.2051 52.2001 49.1991 52.2001C50.1931 52.2001 50.9991 53.0061 50.9991 54.0001Z" fill="white"/>
</svg>
