<svg width="72" height="72" viewBox="0 0 72 72" fill="none" xmlns="http://www.w3.org/2000/svg">
<path d="M18.6431 36H24.4305V41.7857H18.6431V36Z" fill="white"/>
<path d="M30.2143 36H28.2857V41.7857C28.2857 42.8085 27.8793 43.7897 27.1561 44.5133C26.4325 45.2365 25.4514 45.6429 24.4286 45.6429H18.6429C17.62 45.6429 16.6389 45.2365 15.9153 44.5133C15.1921 43.7896 14.7857 42.8085 14.7857 41.7857V36H12.8571C11.8343 36 10.8532 36.4064 10.1296 37.1296C9.40638 37.8532 9 38.8343 9 39.8571V57.2143C9 58.2371 9.40638 59.2182 10.1296 59.9418C10.8532 60.665 11.8343 61.0714 12.8571 61.0714H30.2143C31.2371 61.0714 32.2182 60.665 32.9418 59.9418C33.665 59.2182 34.0714 58.2371 34.0714 57.2143V39.8571C34.0714 38.8343 33.665 37.8532 32.9418 37.1296C32.2182 36.4064 31.2371 36 30.2143 36Z" fill="white"/>
<path d="M47.5715 36H53.359V41.7857H47.5715V36Z" fill="white"/>
<path d="M59.1428 36H57.2142V41.7857C57.2142 42.8085 56.8078 43.7897 56.0846 44.5133C55.3609 45.2365 54.3798 45.6429 53.357 45.6429H47.5713C46.5485 45.6429 45.5674 45.2365 44.8438 44.5133C44.1206 43.7896 43.7142 42.8085 43.7142 41.7857V36H41.7856C40.7628 36 39.7817 36.4064 39.0581 37.1296C38.3348 37.8532 37.9285 38.8343 37.9285 39.8571V57.2143C37.9285 58.2371 38.3348 59.2182 39.0581 59.9418C39.7817 60.665 40.7628 61.0714 41.7856 61.0714H59.1428C60.1656 61.0714 61.1467 60.665 61.8703 59.9418C62.5935 59.2182 62.9999 58.2371 62.9999 57.2143V39.8571C62.9999 38.8343 62.5935 37.8532 61.8703 37.1296C61.1467 36.4064 60.1656 36 59.1428 36Z" fill="white"/>
<path d="M34.0715 9H37.9304V14.7857H34.0715V9Z" fill="white"/>
<path d="M26.3571 32.1429H45.6429C46.6657 32.1429 47.6468 31.7365 48.3704 31.0133C49.0936 30.2896 49.5 29.3085 49.5 28.2857V12.8571C49.5 11.8343 49.0936 10.8532 48.3704 10.1296C47.6468 9.40638 46.6657 9 45.6429 9H41.7857V14.7857C41.7857 15.8085 41.3793 16.7897 40.6561 17.5133C39.9325 18.2365 38.9514 18.6429 37.9286 18.6429H34.0714C33.0486 18.6429 32.0675 18.2365 31.3439 17.5133C30.6207 16.7896 30.2143 15.8085 30.2143 14.7857V9H26.3571C25.3343 9 24.3532 9.40638 23.6296 10.1296C22.9064 10.8532 22.5 11.8343 22.5 12.8571V28.2857C22.5 29.3085 22.9064 30.2897 23.6296 31.0133C24.3532 31.7365 25.3343 32.1429 26.3571 32.1429Z" fill="white"/>
</svg>
