<svg width="72" height="72" viewBox="0 0 72 72" fill="none" xmlns="http://www.w3.org/2000/svg">
<path d="M27.0005 20.9999H45.0003C45.7958 20.9999 46.5592 20.684 47.1217 20.121C47.6842 19.5585 48.0001 18.7956 48.0001 18.0001V14.9998H42.0005C42.0005 12.8563 40.8569 10.8756 39.0002 9.80381C37.1439 8.73206 34.8568 8.73206 33.0006 9.80381C31.1439 10.8756 30.0003 12.8563 30.0003 14.9998H24.0007V18.0001C24.0007 18.7957 24.3166 19.5585 24.8791 20.121C25.4416 20.684 26.2049 20.9999 27.0005 20.9999Z" fill="white"/>
<path d="M52.4995 15.1516V18.0002C52.4975 19.9885 51.7064 21.895 50.3003 23.3007C48.8945 24.707 46.9881 25.4975 44.9997 25.4999H27C25.0116 25.4974 23.1052 24.7069 21.6994 23.3007C20.2931 21.895 19.5022 19.9885 19.5002 18.0002V15.1516C17.406 15.5017 15.5035 16.583 14.1304 18.2026C12.7573 19.8228 12.0024 21.8763 12 23.9998V54.0002C12 56.3868 12.9482 58.6759 14.6362 60.3639C16.3242 62.0519 18.6134 63.0001 20.9999 63.0001H51.0003C53.3869 63.0001 55.676 62.0519 57.364 60.3639C59.052 58.6759 60.0002 56.3868 60.0002 54.0002V23.9998C59.9977 21.8763 59.2429 19.8228 57.8698 18.2026C56.4967 16.5828 54.5943 15.5016 52.5 15.1516H52.4995ZM49.4997 50.9994H22.5C21.7703 51.0049 21.144 50.4806 21.0215 49.7609C20.8984 49.0417 21.3148 48.3391 22.0048 48.1016L24.0002 47.3925V44.9999C24.0138 40.7326 26.3005 36.7956 29.9998 34.6691V37.4997C29.9998 38.3284 30.6718 38.9998 31.5 38.9998C32.3281 38.9998 33.0001 38.3284 33.0001 37.4997V33.4261C34.9598 32.8576 37.04 32.8576 38.9997 33.4261V37.4997C38.9997 38.3284 39.6717 38.9998 40.4998 38.9998C41.328 38.9998 42 38.3284 42 37.4997V34.6691C45.6993 36.7955 47.9861 40.7324 47.9996 44.9999V47.393L49.995 48.1021V48.1016C50.685 48.3392 51.1014 49.0418 50.9783 49.7609C50.8558 50.4806 50.2295 51.005 49.4998 50.9994L49.4997 50.9994Z" fill="white"/>
</svg>
